<svg class="animated" id="freepik_stories-old-fashioned-cocktail" xmlns="http://www.w3.org/2000/svg" viewBox="0 0 500 500" version="1.1" xmlns:xlink="http://www.w3.org/1999/xlink" xmlns:svgjs="http://svgjs.com/svgjs"><style>svg#freepik_stories-old-fashioned-cocktail:not(.animated) .animable {opacity: 0;}svg#freepik_stories-old-fashioned-cocktail.animated #freepik--background-simple--inject-52 {animation: 6s Infinite  linear floating;animation-delay: 0s;}            @keyframes floating {                0% {                    opacity: 1;                    transform: translateY(0px);                }                50% {                    transform: translateY(-10px);                }                100% {                    opacity: 1;                    transform: translateY(0px);                }            }        </style><g id="freepik--background-simple--inject-52" style="transform-origin: 247.048px 252.547px 0px;" class="animable"><path d="M455.59,331.57c-20.14,40.62-55.86,82.72-99.33,90.82-65.67,12.23-80.58,66.85-192.61,46.7A210.74,210.74,0,0,1,116,454.77a180.08,180.08,0,0,1-21.8-11.4c-62-38-87.75-106.93-81.64-174.66,8-89.07,70-123.79,109.91-143.64s96.8-109.76,207.1-90.9a204.46,204.46,0,0,1,49,14.68c35.82,16,70.48,45.55,87.75,84.27q1.95,4.37,3.65,8.88C492.14,200.77,483.05,276.21,455.59,331.57Z" style="fill: rgb(0, 255, 136); transform-origin: 247.048px 252.547px 0px;" id="elps5toivjbxs" class="animable"></path><g id="el5d1mua3uj8c"><path d="M455.59,331.57c-20.14,40.62-55.86,82.72-99.33,90.82-65.67,12.23-80.58,66.85-192.61,46.7A210.74,210.74,0,0,1,116,454.77a180.08,180.08,0,0,1-21.8-11.4c-62-38-87.75-106.93-81.64-174.66,8-89.07,70-123.79,109.91-143.64s96.8-109.76,207.1-90.9a204.46,204.46,0,0,1,49,14.68c35.82,16,70.48,45.55,87.75,84.27q1.95,4.37,3.65,8.88C492.14,200.77,483.05,276.21,455.59,331.57Z" style="fill: rgb(255, 255, 255); opacity: 0.8; transform-origin: 247.048px 252.547px 0px;" class="animable"></path></g></g><g id="freepik--Floor--inject-52" style="transform-origin: 254.41px 315.48px 0px;" class="animable"><line x1="32.31" y1="315.48" x2="476.51" y2="315.48" style="fill: rgb(214, 214, 214); stroke: rgb(38, 50, 56); stroke-miterlimit: 10; transform-origin: 254.41px 315.48px 0px;" id="eloykcecte0j8" class="animable"></line></g><g id="freepik--Cocktail--inject-52" style="transform-origin: 242.45px 220.95px 0px;" class="animable"><ellipse cx="240.85" cy="204.75" rx="118.7" ry="53.11" style="fill: rgb(0, 255, 136); transform-origin: 240.85px 204.75px 0px;" id="elu6qq76vsjn" class="animable"></ellipse><g id="elbhouwbefnfr"><ellipse cx="240.85" cy="204.75" rx="118.7" ry="53.11" style="fill: rgb(255, 255, 255); opacity: 0.59; transform-origin: 240.85px 204.75px 0px;" class="animable"></ellipse></g><path d="M122.16,205v-.08h0Zm237.39,0v0h0Zm-.82,6c-6.92,26.38-57.05,46.85-117.88,46.85-62.82,0-114.23-21.83-118.41-49.47l11.67,143.49c0,32.91,46,59.59,102.77,59.59s102.78-26.68,102.78-59.59c0-1.09-.06-2.18-.16-3.25h.63Z" style="fill: rgb(0, 255, 136); transform-origin: 240.855px 308.19px 0px;" id="eluc53wijx058" class="animable"></path><path d="M294.6,282.64c4.76-1.83,14.27-5.12,17.92-10.24s13.54-26,13.54-26l9.89-9.89c-21.65,12.94-56.18,21.32-95.1,21.32-24,0-46.4-3.2-65.09-8.69l4,4.21s13.9,7.31,21.95,19.75,3.29,18.29,4,21.94,55.6,27.07,65.47,34.75-4.75,5.85-37.31-3.29-45.35-13.53-36.21-4.76,10.61,13.17,10.61,13.17-54.13-5.12-61.81-1.46.36,12.44,26.33,21.95,99.12,13.16,104.25,13.16,27.06,4.76-13.17,15.73-102.42-1.83-58.16,14.27,90,0,103.88-9.51,25.24-21.22,25.6-27.07-8.78-9.88-9.87-9.88,12.8-12.8,11.7-15-14.63,4.39-25.24,4.39-25.6-32.19-28.53-41S289.85,284.47,294.6,282.64Z" style="fill: rgb(38, 50, 56); stroke: rgb(38, 50, 56); stroke-miterlimit: 10; transform-origin: 240.38px 320.958px 0px;" id="elcyb4pbh111r" class="animable"></path><path d="M183.57,268.5s-36-11.37-42.44-14.4-12.89,4.17-8.34,12.13,45.48,34.48,42.06,36.38-40.54-25.39-42.44-31.08S126,223,126.73,225.68s10.61,13.64,26.15,19.71,33,15.15,29.17,16.29-9.09-1.14-10.23-1.9S183.57,268.5,183.57,268.5Z" style="fill: rgb(38, 50, 56); stroke: rgb(38, 50, 56); stroke-miterlimit: 10; transform-origin: 155.11px 264.132px 0px;" id="elubjw4dairje" class="animable"></path><path d="M351,146.18c-1.51-12.1-22.78-23-22.78-23s.05.42.15,1.13c3.65,3,5.88,8.86,9,23.55,4.67,21.92-8.39,45.6-11.54,56.08S313.32,233.84,306,241.18a13.1,13.1,0,0,1-2.14,1.73c5-2.29,12.28-5.6,17.71-7.87,9.07-3.78,11.72-7.18,18.53-17s10.2-29.12,10.2-38.95S352.55,158.28,351,146.18Z" style="fill: rgb(214, 214, 214); stroke: rgb(38, 50, 56); stroke-miterlimit: 10; transform-origin: 327.702px 183.045px 0px;" id="elvuz97efhsfp" class="animable"></path><path d="M224.21,146.31s-7.33,8.91-7.86,19.39-7,16.17,8.39,27.26,28.82,25.15,36.69,30.39,20.44,15.17,24.63,16.78,12.58,8.38,19.92,1.05,16.77-26.74,19.91-37.22,16.21-34.16,11.54-56.08-7.34-24.11-15.73-26.73c-11.29-3.53-23.41-7.81-35.41-7s-25.85,4.5-37,9.08C238.49,127.69,228.71,135.21,224.21,146.31Z" style="fill: rgb(255, 255, 255); stroke: rgb(38, 50, 56); stroke-miterlimit: 10; transform-origin: 276.49px 179.287px 0px;" id="elxszxxavfv4q" class="animable"></path><path d="M245.26,145.22s13.13-15.21,20.39-14.86,5.87,10,5.87,10-.4,35.7-1.21,38.53-27.11-26-28.32-27.25S245.26,145.22,245.26,145.22Z" style="fill: rgb(0, 255, 136); stroke: rgb(38, 50, 56); stroke-miterlimit: 10; transform-origin: 256.705px 154.72px 0px;" id="elr8mz8rriu1" class="animable"></path><path d="M279.59,175.51s8.52-18.89,10.59-21.31,21.43-21.43,17.28-23.84-21.42-3.11-28.34-1-4.49,9.67-4.49,9.67-2.32,37.74-.3,38.54S279.59,175.51,279.59,175.51Z" style="fill: rgb(0, 255, 136); stroke: rgb(38, 50, 56); stroke-miterlimit: 10; transform-origin: 290.773px 152.909px 0px;" id="els0re9f93ymj" class="animable"></path><path d="M299.25,173.08a144.28,144.28,0,0,0,18.58-6.44c9.67-4.15,11.06-6.56,7.26-20s-11.06-18-13.83-12.1-19.79,25-19.79,25-12,14.44-8.76,17.27S299.25,173.08,299.25,173.08Z" style="fill: rgb(0, 255, 136); stroke: rgb(38, 50, 56); stroke-miterlimit: 10; transform-origin: 304.6px 154.763px 0px;" id="el4ksvvjdz0lp" class="animable"></path><path d="M294,186.34s14.52,10,21.78,13.48,5.87-7.61,6.56-12.44,3.46-14.52,3.8-19-7.6,2.07-13.47,4.15-19.72,6.23-19.72,6.23-15.77,1.21-15,3.64S294,186.34,294,186.34Z" style="fill: rgb(0, 255, 136); stroke: rgb(38, 50, 56); stroke-miterlimit: 10; transform-origin: 302.037px 183.665px 0px;" id="elyo4r4gldhns" class="animable"></path><path d="M296.4,210.88s8.3,12.09,11.75,10,10.37-17.28,10.37-17.28-3.46-1-6.22-2.07-15.21-10.37-15.21-10.37-19.93-6.77-17.91-.71S296.4,210.88,296.4,210.88Z" style="fill: rgb(0, 255, 136); stroke: rgb(38, 50, 56); stroke-miterlimit: 10; transform-origin: 298.778px 204.526px 0px;" id="elp1l2kpsxh5f" class="animable"></path><path d="M265,178.75s-23.45-22.24-25.47-23.45-7.27,8.08-8.89,14.15-4.45,15.36,0,19,13.74-1.62,22.23-4S265,183.6,265,178.75Z" style="fill: rgb(0, 255, 136); stroke: rgb(38, 50, 56); stroke-miterlimit: 10; transform-origin: 246.625px 172.444px 0px;" id="elpbdbg2bwi5" class="animable"></path><path d="M265.84,185.22s-22.23,12.93-24.26,14.55-3.63,1.21-.8,3.64,12.53,11.32,16.57,14.55,6.47,5.26,7.68,2.43,6.47-30.32,6.07-33.56S268.27,183.19,265.84,185.22Z" style="fill: rgb(0, 255, 136); stroke: rgb(38, 50, 56); stroke-miterlimit: 10; transform-origin: 255.187px 202.856px 0px;" id="elivlyl62qve9" class="animable"></path><path d="M274.74,187.64s-6.88,32.35-6.88,36,6.47,7.69,12.54,9.3,14.55,1.62,17-4-.81-11.32-4.45-16.58-14.15-17-14.15-17S278.38,188.45,274.74,187.64Z" style="fill: rgb(0, 255, 136); stroke: rgb(38, 50, 56); stroke-miterlimit: 10; transform-origin: 283.056px 210.755px 0px;" id="elfi4bdq0hrke" class="animable"></path><path d="M299.68,225.83s1-28-.69-36.63-7.61-25.57-8.64-28.68-3.46-14.52-7.26-14.86-8.29,1-10,1.38-47.69,7.26-50.11,7.6S179.76,168.47,178,170.2a12.22,12.22,0,0,0-3.45,9.33c.34,4.14,3.8,41.81,9.33,49.41s17.62,19,23.5,21.43,56.33-4.84,69.81-10A68.79,68.79,0,0,0,299.68,225.83Z" style="fill: rgb(255, 255, 255); stroke: rgb(38, 50, 56); stroke-miterlimit: 10; transform-origin: 237.249px 198.229px 0px;" id="el2tdfv6kiiwl" class="animable"></path><path d="M200.76,239.53c1.81,3.06,2.85,4.62,2.85,4.62" style="fill: none; stroke: rgb(38, 50, 56); stroke-miterlimit: 10; transform-origin: 202.185px 241.84px 0px;" id="elu4il3brmoee" class="animable"></path><path d="M179.42,176.42a22.57,22.57,0,0,1,5.53,8.64c1.72,5.18,2.07,28.68,8.29,40.77,1.78,3.47,3.39,6.45,4.78,8.94" style="fill: none; stroke: rgb(38, 50, 56); stroke-miterlimit: 10; transform-origin: 188.72px 205.595px 0px;" id="el12rxypy8a2gf" class="animable"></path><path d="M273.16,170.77c7-1.08,12.41-2.16,14.08-3" style="fill: none; stroke: rgb(38, 50, 56); stroke-miterlimit: 10; transform-origin: 280.2px 169.27px 0px;" id="el9swoqfzsurk" class="animable"></path><path d="M189.78,182s22.47-5.88,39.4-6.57c9.3-.38,24.44-1.91,37-3.61" style="fill: none; stroke: rgb(38, 50, 56); stroke-miterlimit: 10; transform-origin: 227.98px 176.91px 0px;" id="elnshu6z31b9b" class="animable"></path><path d="M368.28,155.29c-7.75,28.59-61,50.71-125.62,50.71-67.85,0-123.23-24.42-126.44-55.09l-.57.39,16.43,201.89c0,33.53,46.88,60.71,104.71,60.71S341.5,386.72,341.5,353.19c0-1.11-.06-2.22-.16-3.32H342Z" style="fill: none; stroke: rgb(38, 50, 56); stroke-miterlimit: 10; transform-origin: 241.965px 282.405px 0px;" id="elsyjzqx57fnr" class="animable"></path><path d="M242.66,90.18c-69.91,0-126.59,25.93-126.59,57.91S172.75,206,242.66,206s126.59-25.92,126.59-57.91S312.57,90.18,242.66,90.18Zm0,113.86c-67.54,0-122.3-25-122.3-55.95s54.76-55.95,122.3-55.95,122.3,25,122.3,56S310.2,204,242.66,204Z" style="fill: none; stroke: rgb(38, 50, 56); stroke-miterlimit: 10; transform-origin: 242.66px 148.09px 0px;" id="elswxrx9thfis" class="animable"></path><path d="M174.58,179.53A12.22,12.22,0,0,1,178,170.2c1.41-1.41,28.6-10.57,40-14.14a25.19,25.19,0,1,0-43.36,25C174.65,180.36,174.6,179.84,174.58,179.53Z" style="fill: rgb(38, 50, 56); stroke: rgb(38, 50, 56); stroke-miterlimit: 10; transform-origin: 193.847px 160.97px 0px;" id="elktstp93pr5" class="animable"></path><circle cx="188.06" cy="154.3" r="3.8" style="fill: rgb(255, 255, 255); stroke: rgb(38, 50, 56); stroke-miterlimit: 10; transform-origin: 188.06px 154.3px 0px;" id="elhzrik5yr65h" class="animable"></circle><circle cx="207.93" cy="154.47" r="1.9" style="fill: rgb(255, 255, 255); stroke: rgb(38, 50, 56); stroke-miterlimit: 10; transform-origin: 207.93px 154.47px 0px;" id="elfxhsxofnazl" class="animable"></circle><circle cx="215.7" cy="117.32" r="26.96" style="fill: rgb(38, 50, 56); stroke: rgb(38, 50, 56); stroke-miterlimit: 10; transform-origin: 215.7px 117.32px 0px;" id="eljtexe9n6q7h" class="animable"></circle><path d="M238,28a12.82,12.82,0,0,0-6.17,24.07L218.81,93.87,223,95.16l13-41.7A12.82,12.82,0,1,0,238,28Zm0,22.4a9.57,9.57,0,1,1,9.56-9.57A9.58,9.58,0,0,1,238,50.38Z" style="fill: rgb(156, 156, 156); stroke: rgb(38, 50, 56); stroke-miterlimit: 10; transform-origin: 234.883px 61.5796px 0px;" id="eltcxdf7ygolh" class="animable"></path><path d="M235.05,109.72a5.18,5.18,0,1,1-5.18-5.18A5.18,5.18,0,0,1,235.05,109.72Z" style="fill: rgb(255, 255, 255); stroke: rgb(38, 50, 56); stroke-miterlimit: 10; transform-origin: 229.87px 109.72px 0px;" id="elr7w9vmig99" class="animable"></path><path d="M221.23,104a3.28,3.28,0,1,1-3.28-3.29A3.28,3.28,0,0,1,221.23,104Z" style="fill: rgb(255, 255, 255); stroke: rgb(38, 50, 56); stroke-miterlimit: 10; transform-origin: 217.95px 103.99px 0px;" id="el0qyuw9kqxkn9" class="animable"></path></g><g id="freepik--Lime--inject-52" style="transform-origin: 366.319px 423.26px 0px;" class="animable"><path d="M445.63,408.36c-11.47-21.11-45.85-34.14-79.47-34s-67.91,13.39-79.22,34.58c-11.2,45,16.67,68.71,79.59,68.49S458.82,450.36,445.63,408.36Z" style="fill: rgb(214, 214, 214); stroke: rgb(38, 50, 56); stroke-miterlimit: 10; transform-origin: 366.625px 425.895px 0px;" id="elkvc17eb2obk" class="animable"></path><path d="M445.61,403.09c-11.47-21.11-45.85-34.14-79.47-34s-67.9,13.39-79.22,34.58c-15.88,29.73,16.65,64.15,79.57,63.93S461.7,432.71,445.61,403.09Z" style="fill: rgb(255, 255, 255); stroke: rgb(38, 50, 56); stroke-miterlimit: 10; transform-origin: 366.319px 418.345px 0px;" id="elxsqmmzavbf" class="animable"></path><path d="M431.64,406.42c-8-16.66-36.58-27.38-65.46-27.28s-57.4,11-65.27,27.73c-10.4,22.07,17.38,45.8,65.53,45.63S442.2,428.41,431.64,406.42Z" style="fill: none; stroke: rgb(38, 50, 56); stroke-miterlimit: 10; transform-origin: 366.309px 415.82px 0px;" id="elkqpo77cdp6n" class="animable"></path><path d="M381.54,383.05c.74-.65-3.71-2.79-12.37-2.86-10.12-.07-13.32.87-14.7,2.36,0,0,10.16,20.68,11.63,21.28S380.8,383.71,381.54,383.05Z" style="fill: rgb(0, 255, 136); transform-origin: 368.045px 392.015px 0px;" id="elz8woz654vdl" class="animable"></path><path d="M363,404.58c1.91,0-10.7-20.75-10.83-21.5s-6.4-1.42-14.14.77c-9.46,2.67-11.34,4.39-10.78,6.11C327.29,390,361.14,404.53,363,404.58Z" style="fill: rgb(0, 255, 136); transform-origin: 345.179px 393.471px 0px;" id="elu2bp6sonklf" class="animable"></path><path d="M309.58,405.13s50.14,1.54,51.78,1-34.52-14.42-35.58-15-8.12.61-13.13,5C306.3,401.54,306.65,403.76,309.58,405.13Z" style="fill: rgb(0, 255, 136); transform-origin: 334.486px 398.619px 0px;" id="el8i8ag5vfxk3" class="animable"></path><path d="M371.76,405.41c-.66.94,50.32,1,52.46,1.2s4.83-3.28-.38-8.21c-5.64-5.32-9.52-6.5-13.58-6.54C410.26,391.86,372.4,404.49,371.76,405.41Z" style="fill: rgb(0, 255, 136); transform-origin: 399.302px 399.239px 0px;" id="elrj0ychrpcq" class="animable"></path><path d="M408,391c1.54-.37,0-3.56-8.09-6-9-2.74-12.91-2.75-15.83-1.83,0,0-15.17,20-14.66,21S406.43,391.38,408,391Z" style="fill: rgb(0, 255, 136); transform-origin: 388.97px 393.422px 0px;" id="ele11kkf0umya" class="animable"></path><path d="M365.83,409.74c-1.62.62-21.82,33.73-21.82,33.73,1.13,3.74,5.69,6.35,22.21,6.71,14.17.31,20.8-4.92,19.48-6.53S367.44,409.12,365.83,409.74Z" style="fill: rgb(0, 255, 136); transform-origin: 364.937px 429.962px 0px;" id="elagzpxi1t6t8" class="animable"></path><path d="M362.78,408.86c-2,0-50,18.52-50,18.52-2.84,3-2.5,6.34,7.73,12.32,9.35,5.47,19.65,4.14,20.4,2.42S364.75,408.86,362.78,408.86Z" style="fill: rgb(0, 255, 136); transform-origin: 337.074px 426.241px 0px;" id="el8t8encyp0ud" class="animable"></path><path d="M361.35,407.21c-1.54-.6-52.51-.35-52.51-.35-4.35,1.34-7.12,3.75-6.61,10.75.49,6.55,7.88,8.81,9.95,7.84S362.9,407.82,361.35,407.21Z" style="fill: rgb(0, 255, 136); transform-origin: 331.778px 416.237px 0px;" id="el35supwhyk17" class="animable"></path><path d="M424.94,408.35c-2,.15-53.77-1.12-53.15-.14s49.14,19.15,49.14,19.15c5.26.1,9.07-1.71,10.62-9.34C432.75,412.07,427,408.21,424.94,408.35Z" style="fill: rgb(0, 255, 136); transform-origin: 401.749px 417.6px 0px;" id="elmqxthb36ygh" class="animable"></path><path d="M418.68,428.73c-2.35-.7-48.77-20.24-49.38-19.24s20.24,34,20.24,34c4.91,2.38,11,2.54,22.86-3.38C421.9,435.33,421.05,429.44,418.68,428.73Z" style="fill: rgb(0, 255, 136); transform-origin: 394.763px 427.243px 0px;" id="elecn7a0fz1ck" class="animable"></path></g><defs>     <filter id="active" height="200%">         <feMorphology in="SourceAlpha" result="DILATED" operator="dilate" radius="2"></feMorphology>                <feFlood flood-color="#32DFEC" flood-opacity="1" result="PINK"></feFlood>        <feComposite in="PINK" in2="DILATED" operator="in" result="OUTLINE"></feComposite>        <feMerge>            <feMergeNode in="OUTLINE"></feMergeNode>            <feMergeNode in="SourceGraphic"></feMergeNode>        </feMerge>    </filter>    <filter id="hover" height="200%">        <feMorphology in="SourceAlpha" result="DILATED" operator="dilate" radius="2"></feMorphology>                <feFlood flood-color="#ff0000" flood-opacity="0.5" result="PINK"></feFlood>        <feComposite in="PINK" in2="DILATED" operator="in" result="OUTLINE"></feComposite>        <feMerge>            <feMergeNode in="OUTLINE"></feMergeNode>            <feMergeNode in="SourceGraphic"></feMergeNode>        </feMerge>            <feColorMatrix type="matrix" values="0   0   0   0   0                0   1   0   0   0                0   0   0   0   0                0   0   0   1   0 "></feColorMatrix>    </filter></defs></svg>